<svg width="39" height="39" viewBox="0 0 39 39" fill="none" xmlns="http://www.w3.org/2000/svg">
<g clip-path="url(#clip0_138_1319)">
<path d="M29.4 0.444336H9C4.02944 0.444336 0 4.47377 0 9.44434V29.8443C0 34.8149 4.02944 38.8443 9 38.8443H29.4C34.3706 38.8443 38.4 34.8149 38.4 29.8443V9.44434C38.4 4.47377 34.3706 0.444336 29.4 0.444336Z" fill="url(#paint0_radial_138_1319)"/>
<path d="M29.4 0.444336H9C4.02944 0.444336 0 4.47377 0 9.44434V29.8443C0 34.8149 4.02944 38.8443 9 38.8443H29.4C34.3706 38.8443 38.4 34.8149 38.4 29.8443V9.44434C38.4 4.47377 34.3706 0.444336 29.4 0.444336Z" fill="url(#paint1_radial_138_1319)"/>
<path d="M19.2014 4.64453C15.1277 4.64453 14.6163 4.66238 13.0164 4.73513C11.4195 4.80833 10.3295 5.06108 9.37576 5.43203C8.38906 5.81513 7.55221 6.32768 6.71851 7.16168C5.88406 7.99553 5.37151 8.83238 4.98721 9.81863C4.61521 10.7726 4.36216 11.8631 4.29031 13.4593C4.21876 15.0593 4.20001 15.5708 4.20001 19.6447C4.20001 23.7185 4.21801 24.2282 4.29061 25.8281C4.36411 27.425 4.61686 28.5151 4.98751 29.4688C5.37091 30.4555 5.88346 31.2923 6.71746 32.126C7.55101 32.9605 8.38786 33.4742 9.37381 33.8573C10.3283 34.2283 11.4185 34.481 13.0151 34.5542C14.6151 34.627 15.126 34.6448 19.1996 34.6448C23.2737 34.6448 23.7834 34.627 25.3833 34.5542C26.9802 34.481 28.0715 34.2283 29.0259 33.8573C30.0122 33.4742 30.8478 32.9605 31.6812 32.126C32.5157 31.2923 33.0281 30.4555 33.4125 29.4692C33.7812 28.5151 34.0344 27.4247 34.1094 25.8284C34.1813 24.2285 34.2 23.7185 34.2 19.6447C34.2 15.5708 34.1813 15.0596 34.1094 13.4596C34.0344 11.8627 33.7812 10.7728 33.4125 9.81908C33.0281 8.83238 32.5157 7.99553 31.6812 7.16168C30.8469 6.32738 30.0125 5.81483 29.025 5.43218C28.0688 5.06108 26.9781 4.80818 25.3812 4.73513C23.7812 4.66238 23.2718 4.64453 19.1967 4.64453H19.2014ZM17.8557 7.34768C18.2552 7.34708 18.7008 7.34768 19.2014 7.34768C23.2065 7.34768 23.6811 7.36208 25.2627 7.43393C26.7252 7.50083 27.519 7.74518 28.0478 7.95053C28.7478 8.22233 29.2469 8.54738 29.7716 9.07253C30.2966 9.59753 30.6215 10.0975 30.894 10.7975C31.0994 11.3255 31.344 12.1193 31.4106 13.5818C31.4825 15.1631 31.4981 15.638 31.4981 19.6412C31.4981 23.6444 31.4825 24.1195 31.4106 25.7006C31.3437 27.1631 31.0994 27.9569 30.894 28.4851C30.6222 29.1851 30.2966 29.6836 29.7716 30.2083C29.2466 30.7333 28.7481 31.0582 28.0478 31.3301C27.5196 31.5364 26.7252 31.7801 25.2627 31.847C23.6814 31.9189 23.2065 31.9345 19.2014 31.9345C15.1961 31.9345 14.7213 31.9189 13.1402 31.847C11.6777 31.7795 10.8839 31.5352 10.3547 31.3298C9.65476 31.0579 9.15466 30.733 8.62966 30.208C8.10466 29.683 7.77976 29.1842 7.50721 28.4839C7.30186 27.9557 7.05721 27.1619 6.99061 25.6994C6.91876 24.1181 6.90436 23.6432 6.90436 19.6375C6.90436 15.6319 6.91876 15.1594 6.99061 13.5781C7.05751 12.1156 7.30186 11.3218 7.50721 10.793C7.77916 10.093 8.10466 9.59303 8.62981 9.06803C9.15481 8.54303 9.65476 8.21798 10.3548 7.94558C10.8836 7.73933 11.6777 7.49558 13.1402 7.42838C14.5239 7.36583 15.0602 7.34708 17.8557 7.34393V7.34768ZM27.2084 9.83828C26.2146 9.83828 25.4084 10.6438 25.4084 11.6377C25.4084 12.6314 26.2146 13.4377 27.2084 13.4377C28.2021 13.4377 29.0084 12.6314 29.0084 11.6377C29.0084 10.6439 28.2021 9.83768 27.2084 9.83768V9.83828ZM19.2014 11.9414C14.9474 11.9414 11.4983 15.3905 11.4983 19.6447C11.4983 23.8988 14.9474 27.3463 19.2014 27.3463C23.4555 27.3463 26.9034 23.8988 26.9034 19.6447C26.9034 15.3907 23.4552 11.9414 19.2011 11.9414H19.2014ZM19.2014 14.6446C21.9627 14.6446 24.2015 16.883 24.2015 19.6447C24.2015 22.406 21.9627 24.6448 19.2014 24.6448C16.4399 24.6448 14.2014 22.406 14.2014 19.6447C14.2014 16.883 16.4399 14.6446 19.2014 14.6446Z" fill="white"/>
</g>
<defs>
<radialGradient id="paint0_radial_138_1319" cx="0" cy="0" r="1" gradientUnits="userSpaceOnUse" gradientTransform="translate(10.2 41.8019) rotate(-90) scale(38.0573 35.3963)">
<stop stop-color="#FFDD55"/>
<stop offset="0.1" stop-color="#FFDD55"/>
<stop offset="0.5" stop-color="#FF543E"/>
<stop offset="1" stop-color="#C837AB"/>
</radialGradient>
<radialGradient id="paint1_radial_138_1319" cx="0" cy="0" r="1" gradientUnits="userSpaceOnUse" gradientTransform="translate(-6.43215 3.21049) rotate(78.681) scale(17.0118 70.1232)">
<stop stop-color="#3771C8"/>
<stop offset="0.128" stop-color="#3771C8"/>
<stop offset="1" stop-color="#6600FF" stop-opacity="0"/>
</radialGradient>
<clipPath id="clip0_138_1319">
<rect width="38.4" height="38.4" fill="white" transform="translate(0 0.444336)"/>
</clipPath>
</defs>
</svg>
