<svg width="76" height="49" viewBox="0 0 76 49" fill="none" xmlns="http://www.w3.org/2000/svg">
<circle cx="14.3721" cy="19.3721" r="14.3721" fill="#FFE164"/>
<path d="M32 21.7722C32 29.7097 25.5654 36.1443 17.6279 36.1443C9.69036 36.1443 3.25574 29.7097 3.25574 21.7722C3.25574 13.8346 9.69036 7.40002 17.6279 7.40002C25.5654 7.40002 32 13.8346 32 21.7722Z" fill="#76BA93"/>
<path d="M37.7722 24.832V36H35.5322V28.736L32.5402 36H30.8442L27.8362 28.736V36H25.5962V24.832H28.1402L31.6922 33.136L35.2442 24.832H37.7722ZM41.1228 26.08C40.7281 26.08 40.3975 25.9573 40.1308 25.712C39.8748 25.456 39.7468 25.1413 39.7468 24.768C39.7468 24.3947 39.8748 24.0853 40.1308 23.84C40.3975 23.584 40.7281 23.456 41.1228 23.456C41.5175 23.456 41.8428 23.584 42.0988 23.84C42.3655 24.0853 42.4988 24.3947 42.4988 24.768C42.4988 25.1413 42.3655 25.456 42.0988 25.712C41.8428 25.9573 41.5175 26.08 41.1228 26.08ZM42.2268 27.136V36H39.9868V27.136H42.2268ZM47.8319 36.144C47.1066 36.144 46.4559 36.016 45.8799 35.76C45.3039 35.4933 44.8453 35.136 44.5039 34.688C44.1733 34.24 43.9919 33.744 43.9599 33.2H46.2159C46.2586 33.5413 46.4239 33.824 46.7119 34.048C47.0106 34.272 47.3786 34.384 47.8159 34.384C48.2426 34.384 48.5733 34.2987 48.8079 34.128C49.0533 33.9573 49.1759 33.7387 49.1759 33.472C49.1759 33.184 49.0266 32.9707 48.7279 32.832C48.4399 32.6827 47.9759 32.5227 47.3359 32.352C46.6746 32.192 46.1306 32.0267 45.7039 31.856C45.2879 31.6853 44.9253 31.424 44.6159 31.072C44.3173 30.72 44.1679 30.2453 44.1679 29.648C44.1679 29.1573 44.3066 28.7093 44.5839 28.304C44.8719 27.8987 45.2773 27.5787 45.7999 27.344C46.3333 27.1093 46.9573 26.992 47.6719 26.992C48.7279 26.992 49.5706 27.2587 50.1999 27.792C50.8293 28.3147 51.1759 29.024 51.2399 29.92H49.0959C49.0639 29.568 48.9146 29.2907 48.6479 29.088C48.3919 28.8747 48.0453 28.768 47.6079 28.768C47.2026 28.768 46.8879 28.8427 46.6639 28.992C46.4506 29.1413 46.3439 29.3493 46.3439 29.616C46.3439 29.9147 46.4933 30.144 46.7919 30.304C47.0906 30.4533 47.5546 30.608 48.1839 30.768C48.8239 30.928 49.3519 31.0933 49.7679 31.264C50.1839 31.4347 50.5413 31.7013 50.8399 32.064C51.1493 32.416 51.3093 32.8853 51.3199 33.472C51.3199 33.984 51.1759 34.4427 50.8879 34.848C50.6106 35.2533 50.2053 35.5733 49.6719 35.808C49.1493 36.032 48.5359 36.144 47.8319 36.144ZM54.2947 26.08C53.9 26.08 53.5694 25.9573 53.3027 25.712C53.0467 25.456 52.9187 25.1413 52.9187 24.768C52.9187 24.3947 53.0467 24.0853 53.3027 23.84C53.5694 23.584 53.9 23.456 54.2947 23.456C54.6894 23.456 55.0147 23.584 55.2707 23.84C55.5374 24.0853 55.6707 24.3947 55.6707 24.768C55.6707 25.1413 55.5374 25.456 55.2707 25.712C55.0147 25.9573 54.6894 26.08 54.2947 26.08ZM55.3987 27.136V36H53.1587V27.136H55.3987Z" fill="#143047"/>
</svg>
