<svg width="84" height="50" viewBox="0 0 84 50" fill="none" xmlns="http://www.w3.org/2000/svg">
<circle cx="17.9652" cy="18.4096" r="17.9652" fill="#FFE164"/>
<path d="M40 21.4096C40 31.3315 31.9567 39.3748 22.0348 39.3748C12.1129 39.3748 4.06966 31.3315 4.06966 21.4096C4.06966 11.4877 12.1129 3.44446 22.0348 3.44446C31.9567 3.44446 40 11.4877 40 21.4096Z" fill="#76BA93"/>
<path d="M50.3854 20.6944V41.6344H46.1854V28.0144L40.5754 41.6344H37.3954L31.7554 28.0144V41.6344H27.5554V20.6944H32.3254L38.9854 36.2644L45.6454 20.6944H50.3854ZM56.6678 23.0344C55.9278 23.0344 55.3078 22.8044 54.8078 22.3444C54.3278 21.8644 54.0878 21.2744 54.0878 20.5744C54.0878 19.8744 54.3278 19.2944 54.8078 18.8344C55.3078 18.3544 55.9278 18.1144 56.6678 18.1144C57.4078 18.1144 58.0178 18.3544 58.4978 18.8344C58.9978 19.2944 59.2478 19.8744 59.2478 20.5744C59.2478 21.2744 58.9978 21.8644 58.4978 22.3444C58.0178 22.8044 57.4078 23.0344 56.6678 23.0344ZM58.7378 25.0144V41.6344H54.5378V25.0144H58.7378ZM69.2474 41.9044C67.8874 41.9044 66.6674 41.6644 65.5874 41.1844C64.5074 40.6844 63.6474 40.0144 63.0074 39.1744C62.3874 38.3344 62.0474 37.4044 61.9874 36.3844H66.2174C66.2974 37.0244 66.6074 37.5544 67.1474 37.9744C67.7074 38.3944 68.3974 38.6044 69.2174 38.6044C70.0174 38.6044 70.6374 38.4444 71.0774 38.1244C71.5374 37.8044 71.7674 37.3944 71.7674 36.8944C71.7674 36.3544 71.4874 35.9544 70.9274 35.6944C70.3874 35.4144 69.5174 35.1144 68.3174 34.7944C67.0774 34.4944 66.0574 34.1844 65.2574 33.8644C64.4774 33.5444 63.7974 33.0544 63.2174 32.3944C62.6574 31.7344 62.3774 30.8444 62.3774 29.7244C62.3774 28.8044 62.6374 27.9644 63.1574 27.2044C63.6974 26.4444 64.4574 25.8444 65.4374 25.4044C66.4374 24.9644 67.6074 24.7444 68.9474 24.7444C70.9274 24.7444 72.5074 25.2444 73.6874 26.2444C74.8674 27.2244 75.5174 28.5544 75.6374 30.2344H71.6174C71.5574 29.5744 71.2774 29.0544 70.7774 28.6744C70.2974 28.2744 69.6474 28.0744 68.8274 28.0744C68.0674 28.0744 67.4774 28.2144 67.0574 28.4944C66.6574 28.7744 66.4574 29.1644 66.4574 29.6644C66.4574 30.2244 66.7374 30.6544 67.2974 30.9544C67.8574 31.2344 68.7274 31.5244 69.9074 31.8244C71.1074 32.1244 72.0974 32.4344 72.8774 32.7544C73.6574 33.0744 74.3274 33.5744 74.8874 34.2544C75.4674 34.9144 75.7674 35.7944 75.7874 36.8944C75.7874 37.8544 75.5174 38.7144 74.9774 39.4744C74.4574 40.2344 73.6974 40.8344 72.6974 41.2744C71.7174 41.6944 70.5674 41.9044 69.2474 41.9044ZM81.365 23.0344C80.625 23.0344 80.005 22.8044 79.505 22.3444C79.025 21.8644 78.785 21.2744 78.785 20.5744C78.785 19.8744 79.025 19.2944 79.505 18.8344C80.005 18.3544 80.625 18.1144 81.365 18.1144C82.105 18.1144 82.715 18.3544 83.195 18.8344C83.695 19.2944 83.945 19.8744 83.945 20.5744C83.945 21.2744 83.695 21.8644 83.195 22.3444C82.715 22.8044 82.105 23.0344 81.365 23.0344ZM83.435 25.0144V41.6344H79.235V25.0144H83.435Z" fill="#143047"/>
</svg>
