<svg width="76" height="49" viewBox="0 0 76 49" fill="none" xmlns="http://www.w3.org/2000/svg">
<circle cx="14.3721" cy="19.3721" r="14.3721" fill="#FFE164"/>
<path d="M32 21.7722C32 29.7097 25.5654 36.1443 17.6279 36.1443C9.69036 36.1443 3.25574 29.7097 3.25574 21.7722C3.25574 13.8346 9.69036 7.40002 17.6279 7.40002C25.5654 7.40002 32 13.8346 32 21.7722Z" fill="#76BA93"/>
<path d="M37.136 24.832L33.04 36H30.32L26.224 24.832H28.624L31.696 33.712L34.752 24.832H37.136ZM39.615 26.08C39.2203 26.08 38.8897 25.9573 38.623 25.712C38.367 25.456 38.239 25.1413 38.239 24.768C38.239 24.3947 38.367 24.0853 38.623 23.84C38.8897 23.584 39.2203 23.456 39.615 23.456C40.0097 23.456 40.335 23.584 40.591 23.84C40.8577 24.0853 40.991 24.3947 40.991 24.768C40.991 25.1413 40.8577 25.456 40.591 25.712C40.335 25.9573 40.0097 26.08 39.615 26.08ZM40.719 27.136V36H38.479V27.136H40.719ZM46.3241 36.144C45.5988 36.144 44.9481 36.016 44.3721 35.76C43.7961 35.4933 43.3375 35.136 42.9961 34.688C42.6655 34.24 42.4841 33.744 42.4521 33.2H44.7081C44.7508 33.5413 44.9161 33.824 45.2041 34.048C45.5028 34.272 45.8708 34.384 46.3081 34.384C46.7348 34.384 47.0655 34.2987 47.3001 34.128C47.5455 33.9573 47.6681 33.7387 47.6681 33.472C47.6681 33.184 47.5188 32.9707 47.2201 32.832C46.9321 32.6827 46.4681 32.5227 45.8281 32.352C45.1668 32.192 44.6228 32.0267 44.1961 31.856C43.7801 31.6853 43.4175 31.424 43.1081 31.072C42.8095 30.72 42.6601 30.2453 42.6601 29.648C42.6601 29.1573 42.7988 28.7093 43.0761 28.304C43.3641 27.8987 43.7695 27.5787 44.2921 27.344C44.8255 27.1093 45.4495 26.992 46.1641 26.992C47.2201 26.992 48.0628 27.2587 48.6921 27.792C49.3215 28.3147 49.6681 29.024 49.7321 29.92H47.5881C47.5561 29.568 47.4068 29.2907 47.1401 29.088C46.8841 28.8747 46.5375 28.768 46.1001 28.768C45.6948 28.768 45.3801 28.8427 45.1561 28.992C44.9428 29.1413 44.8361 29.3493 44.8361 29.616C44.8361 29.9147 44.9855 30.144 45.2841 30.304C45.5828 30.4533 46.0468 30.608 46.6761 30.768C47.3161 30.928 47.8441 31.0933 48.2601 31.264C48.6761 31.4347 49.0335 31.7013 49.3321 32.064C49.6415 32.416 49.8015 32.8853 49.8121 33.472C49.8121 33.984 49.6681 34.4427 49.3801 34.848C49.1028 35.2533 48.6975 35.5733 48.1641 35.808C47.6415 36.032 47.0281 36.144 46.3241 36.144ZM52.7869 26.08C52.3922 26.08 52.0615 25.9573 51.7949 25.712C51.5389 25.456 51.4109 25.1413 51.4109 24.768C51.4109 24.3947 51.5389 24.0853 51.7949 23.84C52.0615 23.584 52.3922 23.456 52.7869 23.456C53.1815 23.456 53.5069 23.584 53.7629 23.84C54.0295 24.0853 54.1629 24.3947 54.1629 24.768C54.1629 25.1413 54.0295 25.456 53.7629 25.712C53.5069 25.9573 53.1815 26.08 52.7869 26.08ZM53.8909 27.136V36H51.6509V27.136H53.8909Z" fill="#143047"/>
</svg>
