<svg width="82" height="50" viewBox="0 0 82 50" fill="none" xmlns="http://www.w3.org/2000/svg">
<circle cx="17.9652" cy="18.4096" r="17.9652" fill="#FFE164"/>
<path d="M40 21.4096C40 31.3315 31.9567 39.3748 22.0348 39.3748C12.1129 39.3748 4.06966 31.3315 4.06966 21.4096C4.06966 11.4877 12.1129 3.44446 22.0348 3.44446C31.9567 3.44446 40 11.4877 40 21.4096Z" fill="#76BA93"/>
<path d="M49.1925 20.6943L41.5125 41.6343H36.4125L28.7325 20.6943H33.2325L38.9925 37.3443L44.7225 20.6943H49.1925ZM53.8406 23.0343C53.1006 23.0343 52.4806 22.8043 51.9806 22.3443C51.5006 21.8643 51.2606 21.2743 51.2606 20.5743C51.2606 19.8743 51.5006 19.2943 51.9806 18.8343C52.4806 18.3543 53.1006 18.1143 53.8406 18.1143C54.5806 18.1143 55.1906 18.3543 55.6706 18.8343C56.1706 19.2943 56.4206 19.8743 56.4206 20.5743C56.4206 21.2743 56.1706 21.8643 55.6706 22.3443C55.1906 22.8043 54.5806 23.0343 53.8406 23.0343ZM55.9106 25.0143V41.6343H51.7106V25.0143H55.9106ZM66.4202 41.9043C65.0602 41.9043 63.8402 41.6643 62.7602 41.1843C61.6802 40.6843 60.8202 40.0143 60.1802 39.1743C59.5602 38.3343 59.2202 37.4043 59.1602 36.3843H63.3902C63.4702 37.0243 63.7802 37.5543 64.3202 37.9743C64.8802 38.3943 65.5702 38.6043 66.3902 38.6043C67.1902 38.6043 67.8102 38.4443 68.2502 38.1243C68.7102 37.8043 68.9402 37.3943 68.9402 36.8943C68.9402 36.3543 68.6602 35.9543 68.1002 35.6943C67.5602 35.4143 66.6902 35.1143 65.4902 34.7943C64.2502 34.4943 63.2302 34.1843 62.4302 33.8643C61.6502 33.5443 60.9702 33.0543 60.3902 32.3943C59.8302 31.7343 59.5502 30.8443 59.5502 29.7243C59.5502 28.8043 59.8102 27.9643 60.3302 27.2043C60.8702 26.4443 61.6302 25.8443 62.6102 25.4043C63.6102 24.9643 64.7802 24.7443 66.1202 24.7443C68.1002 24.7443 69.6802 25.2443 70.8602 26.2443C72.0402 27.2243 72.6902 28.5543 72.8102 30.2343H68.7902C68.7302 29.5743 68.4502 29.0543 67.9502 28.6743C67.4702 28.2743 66.8202 28.0743 66.0002 28.0743C65.2402 28.0743 64.6502 28.2143 64.2302 28.4943C63.8302 28.7743 63.6302 29.1643 63.6302 29.6643C63.6302 30.2243 63.9102 30.6543 64.4702 30.9543C65.0302 31.2343 65.9002 31.5243 67.0802 31.8243C68.2802 32.1243 69.2702 32.4343 70.0502 32.7543C70.8302 33.0743 71.5002 33.5743 72.0602 34.2543C72.6402 34.9143 72.9402 35.7943 72.9602 36.8943C72.9602 37.8543 72.6902 38.7143 72.1502 39.4743C71.6302 40.2343 70.8702 40.8343 69.8702 41.2743C68.8902 41.6943 67.7402 41.9043 66.4202 41.9043ZM78.5379 23.0343C77.7979 23.0343 77.1779 22.8043 76.6779 22.3443C76.1979 21.8643 75.9579 21.2743 75.9579 20.5743C75.9579 19.8743 76.1979 19.2943 76.6779 18.8343C77.1779 18.3543 77.7979 18.1143 78.5379 18.1143C79.2779 18.1143 79.8879 18.3543 80.3679 18.8343C80.8679 19.2943 81.1179 19.8743 81.1179 20.5743C81.1179 21.2743 80.8679 21.8643 80.3679 22.3443C79.8879 22.8043 79.2779 23.0343 78.5379 23.0343ZM80.6079 25.0143V41.6343H76.4079V25.0143H80.6079Z" fill="#143047"/>
</svg>
